<?xml version="1.0" encoding="UTF-8"?>
<svg xmlns="http://www.w3.org/2000/svg" xmlns:xlink="http://www.w3.org/1999/xlink" width="26px" height="18px" viewBox="0 0 4 6" version="1.1">
<g id="surface1">
<path style=" stroke:none;fill-rule:nonzero;fill:rgb(100%,100%,100%);fill-opacity:0.6;" d="M 3.847656 0 L 2.890625 0 C 1.8125 0 1.117188 0.578125 1.117188 1.476562 L 1.117188 2.15625 L 0.152344 2.15625 C 0.0664062 2.15625 0 2.210938 0 2.28125 L 0 3.265625 C 0 3.332031 0.0664062 3.386719 0.152344 3.386719 L 1.117188 3.386719 L 1.117188 5.878906 C 1.117188 5.945312 1.183594 6 1.265625 6 L 2.523438 6 C 2.609375 6 2.675781 5.945312 2.675781 5.878906 L 2.675781 3.386719 L 3.804688 3.386719 C 3.886719 3.386719 3.953125 3.332031 3.953125 3.265625 L 3.953125 2.28125 C 3.953125 2.246094 3.9375 2.214844 3.910156 2.191406 C 3.882812 2.171875 3.84375 2.15625 3.804688 2.15625 L 2.675781 2.15625 L 2.675781 1.582031 C 2.675781 1.304688 2.757812 1.160156 3.203125 1.160156 L 3.847656 1.160156 C 3.933594 1.160156 4 1.105469 4 1.039062 L 4 0.125 C 4 0.0546875 3.933594 0 3.847656 0 Z M 3.847656 0 "/>
</g>
</svg>
