<?xml version="1.0" encoding="UTF-8"?>
<svg xmlns="http://www.w3.org/2000/svg" xmlns:xlink="http://www.w3.org/1999/xlink" width="26px" height="18px" viewBox="0 0 7 4" version="1.1">
<g id="surface1">
<path style=" stroke:none;fill-rule:nonzero;fill:rgb(100%,100%,100%);fill-opacity:0.6;" d="M 6.960938 3.613281 C 6.953125 3.59375 6.945312 3.578125 6.9375 3.566406 C 6.816406 3.347656 6.585938 3.078125 6.242188 2.761719 L 6.230469 2.75 L 6.230469 2.746094 L 6.226562 2.746094 C 6.070312 2.597656 5.972656 2.496094 5.929688 2.445312 C 5.855469 2.347656 5.835938 2.25 5.878906 2.152344 C 5.90625 2.074219 6.015625 1.914062 6.207031 1.671875 C 6.304688 1.542969 6.386719 1.441406 6.445312 1.363281 C 6.863281 0.800781 7.046875 0.445312 6.988281 0.289062 L 6.96875 0.253906 C 6.953125 0.230469 6.917969 0.210938 6.855469 0.191406 C 6.792969 0.175781 6.71875 0.171875 6.621094 0.183594 L 5.574219 0.191406 C 5.554688 0.183594 5.53125 0.183594 5.5 0.191406 C 5.46875 0.199219 5.453125 0.203125 5.453125 0.203125 L 5.433594 0.210938 L 5.417969 0.222656 C 5.40625 0.230469 5.394531 0.242188 5.378906 0.261719 C 5.363281 0.28125 5.351562 0.300781 5.34375 0.324219 C 5.230469 0.621094 5.097656 0.894531 4.953125 1.148438 C 4.863281 1.296875 4.78125 1.429688 4.707031 1.539062 C 4.628906 1.648438 4.566406 1.730469 4.515625 1.785156 C 4.464844 1.835938 4.417969 1.878906 4.378906 1.910156 C 4.335938 1.941406 4.304688 1.953125 4.28125 1.949219 C 4.261719 1.945312 4.238281 1.941406 4.21875 1.933594 C 4.1875 1.914062 4.160156 1.882812 4.136719 1.847656 C 4.117188 1.808594 4.105469 1.761719 4.097656 1.703125 C 4.089844 1.644531 4.085938 1.597656 4.082031 1.554688 C 4.082031 1.515625 4.082031 1.457031 4.085938 1.378906 C 4.089844 1.304688 4.089844 1.253906 4.089844 1.226562 C 4.089844 1.132812 4.089844 1.035156 4.09375 0.925781 C 4.097656 0.816406 4.101562 0.730469 4.105469 0.667969 C 4.105469 0.605469 4.109375 0.539062 4.109375 0.46875 C 4.109375 0.398438 4.101562 0.34375 4.09375 0.300781 C 4.085938 0.261719 4.074219 0.222656 4.054688 0.183594 C 4.039062 0.148438 4.015625 0.117188 3.980469 0.0976562 C 3.949219 0.078125 3.910156 0.0585938 3.859375 0.046875 C 3.730469 0.0195312 3.566406 0.00390625 3.367188 0 C 2.914062 -0.00390625 2.625 0.0234375 2.496094 0.0898438 C 2.445312 0.113281 2.398438 0.152344 2.359375 0.199219 C 2.3125 0.25 2.308594 0.28125 2.339844 0.285156 C 2.484375 0.308594 2.589844 0.359375 2.648438 0.441406 L 2.671875 0.484375 C 2.6875 0.519531 2.707031 0.574219 2.722656 0.652344 C 2.738281 0.734375 2.75 0.824219 2.753906 0.921875 C 2.765625 1.097656 2.765625 1.25 2.753906 1.375 C 2.742188 1.503906 2.730469 1.601562 2.722656 1.671875 C 2.710938 1.742188 2.691406 1.800781 2.671875 1.84375 C 2.648438 1.886719 2.636719 1.914062 2.628906 1.925781 C 2.621094 1.933594 2.613281 1.941406 2.609375 1.941406 C 2.578125 1.953125 2.546875 1.960938 2.511719 1.960938 C 2.476562 1.960938 2.4375 1.945312 2.386719 1.910156 C 2.339844 1.875 2.289062 1.828125 2.234375 1.769531 C 2.183594 1.710938 2.125 1.625 2.058594 1.519531 C 1.992188 1.410156 1.925781 1.285156 1.855469 1.140625 L 1.796875 1.035156 C 1.761719 0.964844 1.710938 0.867188 1.648438 0.734375 C 1.585938 0.605469 1.527344 0.480469 1.480469 0.359375 C 1.460938 0.308594 1.429688 0.269531 1.390625 0.242188 L 1.375 0.230469 C 1.363281 0.21875 1.34375 0.210938 1.316406 0.199219 C 1.289062 0.1875 1.261719 0.179688 1.230469 0.175781 L 0.234375 0.183594 C 0.132812 0.183594 0.0625 0.207031 0.0273438 0.253906 L 0.0117188 0.273438 C 0.00390625 0.285156 0 0.304688 0 0.332031 C 0 0.359375 0.0078125 0.390625 0.0234375 0.429688 C 0.167969 0.773438 0.328125 1.105469 0.496094 1.425781 C 0.667969 1.742188 0.816406 2 0.945312 2.195312 C 1.070312 2.390625 1.199219 2.574219 1.332031 2.746094 C 1.460938 2.917969 1.546875 3.027344 1.589844 3.078125 C 1.632812 3.125 1.667969 3.164062 1.691406 3.1875 L 1.78125 3.273438 C 1.839844 3.332031 1.925781 3.402344 2.039062 3.484375 C 2.152344 3.566406 2.277344 3.644531 2.414062 3.726562 C 2.550781 3.804688 2.710938 3.867188 2.894531 3.917969 C 3.074219 3.96875 3.253906 3.988281 3.425781 3.980469 L 3.84375 3.980469 C 3.929688 3.972656 3.996094 3.945312 4.039062 3.898438 L 4.054688 3.878906 C 4.0625 3.867188 4.070312 3.84375 4.078125 3.8125 C 4.089844 3.78125 4.09375 3.75 4.09375 3.710938 C 4.089844 3.609375 4.097656 3.515625 4.117188 3.429688 C 4.132812 3.347656 4.15625 3.28125 4.179688 3.238281 C 4.203125 3.199219 4.226562 3.160156 4.257812 3.132812 C 4.285156 3.101562 4.308594 3.085938 4.320312 3.078125 C 4.332031 3.074219 4.339844 3.070312 4.347656 3.066406 C 4.40625 3.046875 4.476562 3.066406 4.554688 3.125 C 4.632812 3.179688 4.707031 3.25 4.777344 3.335938 C 4.84375 3.417969 4.929688 3.511719 5.027344 3.617188 C 5.125 3.722656 5.207031 3.800781 5.28125 3.851562 L 5.355469 3.894531 C 5.402344 3.925781 5.464844 3.953125 5.542969 3.976562 C 5.621094 4 5.6875 4.007812 5.746094 3.992188 L 6.679688 3.980469 C 6.773438 3.980469 6.84375 3.964844 6.894531 3.933594 C 6.945312 3.902344 6.976562 3.871094 6.988281 3.832031 C 6.996094 3.796875 6.996094 3.753906 6.988281 3.710938 C 6.980469 3.664062 6.972656 3.628906 6.960938 3.613281 Z M 6.960938 3.613281 "/>
</g>
</svg>
