<?xml version="1.0" encoding="UTF-8"?>
<svg xmlns="http://www.w3.org/2000/svg" xmlns:xlink="http://www.w3.org/1999/xlink" width="26px" height="18px" viewBox="0 0 7 5" version="1.1">
<g id="surface1">
<path style=" stroke:none;fill-rule:nonzero;fill:rgb(100%,100%,100%);fill-opacity:0.6;" d="M 5.546875 0 L 1.453125 0 C 0.652344 0 0 0.65625 0 1.46875 L 0 3.53125 C 0 4.34375 0.652344 5 1.453125 5 L 5.546875 5 C 6.347656 5 7 4.34375 7 3.53125 L 7 1.46875 C 7 0.65625 6.347656 0 5.546875 0 Z M 4.5625 2.601562 L 2.648438 3.523438 C 2.597656 3.546875 2.539062 3.507812 2.539062 3.453125 L 2.539062 1.550781 C 2.539062 1.492188 2.597656 1.457031 2.652344 1.480469 L 4.566406 2.460938 C 4.621094 2.492188 4.621094 2.574219 4.5625 2.601562 Z M 4.5625 2.601562 "/>
</g>
</svg>
