<svg width="26" height="26" fill="none" xmlns="http://www.w3.org/2000/svg"><g clip-path="url(#clip0_21_2)" filter="url(#filter0_i_21_2)" fill="#fff"><path d="M17.875 0h-9.75A8.126 8.126 0 000 8.125v9.75A8.126 8.126 0 008.125 26h9.75A8.126 8.126 0 0026 17.875v-9.75A8.126 8.126 0 0017.875 0zm5.688 17.875a5.694 5.694 0 01-5.688 5.688h-9.75a5.694 5.694 0 01-5.688-5.688v-9.75a5.694 5.694 0 015.688-5.688h9.75a5.694 5.694 0 015.688 5.688v9.75z"/><path d="M13 6.5a6.5 6.5 0 100 13 6.5 6.5 0 000-13zm0 10.563A4.068 4.068 0 018.937 13 4.067 4.067 0 0113 8.937 4.067 4.067 0 0117.063 13 4.068 4.068 0 0113 17.063zm6.985-10.184a.866.866 0 100-1.732.866.866 0 000 1.732z"/></g><defs><clipPath id="clip0_21_2"><path fill="#fff" d="M0 0h26v26H0z"/></clipPath><filter id="filter0_i_21_2" x="0" y="0" width="26" height="30" filterUnits="userSpaceOnUse" color-interpolation-filters="sRGB"><feFlood flood-opacity="0" result="BackgroundImageFix"/><feBlend in="SourceGraphic" in2="BackgroundImageFix" result="shape"/><feColorMatrix in="SourceAlpha" values="0 0 0 0 0 0 0 0 0 0 0 0 0 0 0 0 0 0 127 0" result="hardAlpha"/><feOffset dy="4"/><feGaussianBlur stdDeviation="2"/><feComposite in2="hardAlpha" operator="arithmetic" k2="-1" k3="1"/><feColorMatrix values="0 0 0 0 0 0 0 0 0 0 0 0 0 0 0 0 0 0 0.25 0"/><feBlend in2="shape" result="effect1_innerShadow_21_2"/></filter></defs></svg>