<svg xmlns="http://www.w3.org/2000/svg" width="26" height="18" viewBox="0 0 7 4"><path d="M6.96 3.613a.26.26 0 00-.022-.047c-.122-.218-.352-.488-.696-.804L6.23 2.75v-.004h-.003a4.607 4.607 0 01-.297-.3c-.075-.098-.094-.196-.051-.294.027-.078.137-.238.328-.48.098-.129.18-.23.238-.309.418-.562.602-.918.543-1.074l-.02-.035C6.954.23 6.919.21 6.856.19a.641.641 0 00-.234-.007L5.574.19a.119.119 0 00-.074 0l-.047.012-.02.008-.015.012a.181.181 0 00-.04.039.198.198 0 00-.034.062c-.114.297-.246.57-.39.824-.09.149-.173.282-.247.391-.078.11-.14.191-.191.246-.051.05-.098.094-.137.125-.043.031-.074.043-.098.04-.02-.005-.043-.009-.062-.016a.289.289 0 01-.082-.086.456.456 0 01-.04-.145c-.007-.058-.011-.105-.015-.148 0-.04 0-.098.004-.176.004-.074.004-.125.004-.152 0-.094 0-.192.004-.301l.011-.258c0-.063.004-.129.004-.2A.91.91 0 004.094.3a.46.46 0 00-.04-.117.177.177 0 00-.074-.086.39.39 0 00-.12-.051A2.693 2.693 0 003.366 0c-.453-.004-.742.023-.87.09a.403.403 0 00-.138.11c-.046.05-.05.081-.02.085.145.024.25.074.31.156l.023.043c.015.036.035.09.05.168.016.082.028.172.032.27.012.176.012.328 0 .453-.012.129-.024.227-.031.297a.698.698 0 01-.051.172c-.024.043-.035.07-.043.082-.008.008-.016.015-.02.015a.272.272 0 01-.097.02c-.035 0-.075-.016-.125-.05a1.197 1.197 0 01-.153-.141 2.169 2.169 0 01-.175-.25 4.666 4.666 0 01-.204-.38l-.058-.105c-.035-.07-.086-.168-.149-.3A5.085 5.085 0 011.48.358a.25.25 0 00-.09-.117L1.376.23a.22.22 0 00-.06-.03.31.31 0 00-.086-.025L.234.184c-.101 0-.172.023-.207.07l-.015.02C.004.284 0 .303 0 .331s.008.06.023.099c.145.343.305.675.473.996.172.316.32.574.45.77.124.195.253.378.386.55.129.172.215.281.258.332l.101.11.09.085c.059.059.145.13.258.211.113.082.238.16.375.243.137.078.297.14.48.191.18.05.36.07.532.062h.418a.292.292 0 00.195-.082l.016-.02a.246.246 0 00.023-.066.277.277 0 00.016-.101 1.08 1.08 0 01.086-.473.422.422 0 01.078-.105.3.3 0 01.062-.055.195.195 0 00.028-.012c.058-.02.129 0 .207.059.078.055.152.125.222.21.067.083.153.177.25.282.098.106.18.184.254.235l.074.043a.78.78 0 00.188.082.374.374 0 00.203.015l.934-.012a.408.408 0 00.215-.046c.05-.032.082-.063.093-.102a.315.315 0 000-.121.27.27 0 00-.027-.098zm0 0" fill="#fff" fill-opacity=".6" id="surface1"/></svg>